<?xml version="1.0"?>
<svg xmlns="http://www.w3.org/2000/svg" height="512px" viewBox="-39 0 378 378.0001" width="512px" class=""><g><path d="m10 326h280v42h-280zm0 0" fill="#00efd1" data-original="#00EFD1" class="active-path" style="fill:#6495ED" data-old_color="#00efd1"/><path d="m246.289062 99.609375-29.109374 31.230469-46.179688-42.789063v174.949219h-42v-174.949219l-46.191406 42.789063-29.199219-31.230469 96.351563-89.609375zm0 0" fill="#00acea" data-original="#00ACEA" class="" style="fill:#6495ED" data-old_color="#00acea"/><g fill="#083863"><path d="m129 273h42c5.523438 0 10-4.476562 10-10v-152.050781l29.382812 27.226562c4.042969 3.746094 10.355469 3.515625 14.113282-.519531l29.109375-31.226562c3.769531-4.042969 3.542969-10.375-.5-14.140626l-96.332031-89.609374c-3.839844-3.574219-9.78125-3.574219-13.621094 0l-96.351563 89.605468c-1.945312 1.8125-3.089843 4.320313-3.183593 6.976563-.09375 2.652343.875 5.238281 2.6875 7.175781l29.203124 31.230469c3.757813 4.023437 10.058594 4.25 14.097657.507812l29.394531-27.230469v152.054688c0 5.523438 4.476562 10 10 10zm-45.683594-156.261719-15.554687-16.636719 82.203125-76.449218 82.1875 76.457031-15.484375 16.613281-38.867188-36.007812c-2.917969-2.703125-7.15625-3.421875-10.800781-1.832032-3.644531 1.589844-6 5.191407-6 9.167969v164.949219h-22v-164.949219c0-3.976562-2.355469-7.578125-6-9.167969-3.644531-1.59375-7.882812-.871093-10.800781 1.832032zm0 0" data-original="#083863" class="" style="fill:#000000" data-old_color="#083863"/><path d="m0 326v42c0 5.523438 4.476562 10 10 10h280c5.523438 0 10-4.476562 10-10v-42c0-5.523438-4.476562-10-10-10h-280c-5.523438 0-10 4.476562-10 10zm20 10h260v22h-260zm0 0" data-original="#083863" class="" style="fill:#000000" data-old_color="#083863"/></g></g> </svg>
